<?xml version="1.0" encoding="UTF-8"?>
<!-- Generator: https://ezgif.com/png-to-svg -->
<svg version="1.1" xmlns="http://www.w3.org/2000/svg" width="626" height="626">
<path d="M0 0 C1.14 -0 2.28 -0 3.46 -0 C5.86 -0 8.27 -0 10.67 0 C14.36 0.01 18.05 0 21.74 -0 C24.08 -0 26.41 -0 28.75 0 C29.86 -0 30.97 -0 32.11 -0.01 C33.13 -0 34.15 0 35.2 0 C36.11 0 37.01 0.01 37.94 0.01 C40.11 0.13 40.11 0.13 42.11 1.13 C42.11 1.79 42.11 2.45 42.11 3.13 C43.03 3.07 43.96 3.01 44.91 2.95 C50.25 2.96 55.2 4.56 60.3 6.01 C61.28 6.28 62.27 6.55 63.28 6.82 C67.43 7.98 71.29 9.09 75.11 11.13 C75.11 12.12 75.11 13.11 75.11 14.13 C75.67 14.23 76.22 14.33 76.8 14.43 C82.49 15.55 87.02 17.36 92.11 20.13 C92.11 21.12 92.11 22.11 92.11 23.13 C92.98 23.22 93.84 23.3 94.73 23.38 C102.27 25.06 108.27 31.33 114.11 36.13 C114.78 36.68 115.45 37.22 116.14 37.79 C122.37 43.01 127.74 49.04 133.11 55.13 C133.59 55.65 134.06 56.17 134.55 56.7 C137.37 59.85 138.11 60.73 138.11 65.13 C139.1 65.13 140.09 65.13 141.11 65.13 C142.87 68.22 143.11 69.37 143.11 73.13 C143.97 73.17 143.97 73.17 144.84 73.2 C148.43 74.68 149.65 77.77 151.36 81.07 C151.94 82.18 151.94 82.18 152.53 83.32 C170.17 118.88 174.57 162.39 162.11 200.13 C161.88 200.87 161.65 201.61 161.41 202.36 C158.3 212.22 154.67 221.62 149.92 230.82 C149.3 232.05 149.3 232.05 148.66 233.31 C148.26 234.06 147.86 234.81 147.44 235.58 C147.09 236.25 146.73 236.91 146.37 237.59 C144.78 239.54 143.55 239.77 141.11 240.13 C141.02 241.01 140.94 241.89 140.85 242.8 C140 246.61 138.71 248.46 136.23 251.45 C135.54 252.31 134.84 253.17 134.12 254.06 C132.11 256.13 132.11 256.13 129.11 257.13 C128.42 258.79 127.76 260.46 127.11 262.13 C120.75 270.01 112.16 276.09 104.11 282.13 C103.23 282.8 102.35 283.46 101.45 284.14 C84.03 296.79 84.03 296.79 75.11 296.13 C75.11 297.12 75.11 298.11 75.11 299.13 C43.66 311.45 43.66 311.45 26.11 311.13 C26.06 310.36 26.01 309.59 25.96 308.8 C25.89 307.79 25.81 306.79 25.73 305.76 C25.63 304.26 25.63 304.26 25.52 302.73 C25.35 299.98 25.35 299.98 23.11 298.13 C22.9 295.41 22.9 295.41 22.95 291.99 C22.97 290.14 22.97 290.14 22.98 288.25 C23 286.95 23.02 285.66 23.05 284.32 C23.08 281.77 23.11 279.22 23.14 276.68 C23.15 275.54 23.17 274.41 23.19 273.24 C23.2 270.23 23.2 270.23 22.62 267.7 C21.94 264.31 21.93 260.96 21.91 257.52 C21.9 256.78 21.89 256.05 21.89 255.29 C21.88 253.74 21.87 252.18 21.87 250.63 C21.86 248.3 21.83 245.97 21.8 243.65 C21.69 229.14 24.59 216.08 28.8 202.2 C29.12 201.12 29.44 200.04 29.77 198.93 C30.54 196.33 31.32 193.73 32.11 191.13 C37.56 190.79 37.56 190.79 40.05 192.34 C40.85 193.13 40.85 193.13 41.67 193.95 C44.35 196.45 46.9 198.33 50.11 200.13 C51.06 200.77 52.01 201.41 52.98 202.07 C56.29 204.25 59.65 206.2 63.11 208.13 C63.11 206.81 63.11 205.49 63.11 204.13 C62.12 203.8 61.13 203.47 60.11 203.13 C60.11 201.81 60.11 200.49 60.11 199.13 C58.79 198.8 57.47 198.47 56.11 198.13 C55.86 197.12 55.61 196.11 55.36 195.07 C53.91 190 51.29 185.84 48.3 181.51 C46.82 178.55 47.35 177.26 48.11 174.13 C65.24 168.92 65.24 168.92 72.61 168.7 C78.82 168.42 83.94 166.66 89.72 164.58 C97.17 161.95 104.76 160.33 112.49 158.78 C113.43 158.59 114.36 158.41 115.32 158.21 C116.15 158.05 116.98 157.89 117.83 157.72 C120.14 157.13 122.03 156.28 124.11 155.13 C117.32 152.35 110.46 150.71 103.3 149.13 C96.92 147.71 90.57 146.3 84.28 144.54 C79.94 143.33 75.67 142.41 71.23 141.63 C66.05 140.7 60.88 139.7 55.73 138.57 C54.7 138.34 53.66 138.11 52.59 137.88 C50.11 137.13 50.11 137.13 48.11 135.13 C47.25 129.96 49.08 126.92 51.72 122.67 C52.41 121.91 52.41 121.91 53.11 121.13 C54.1 121.13 55.09 121.13 56.11 121.13 C56.13 120.31 56.15 119.48 56.17 118.63 C57.33 114.31 59.38 112.37 62.39 109.17 C64.78 106.34 65.88 103.61 67.11 100.13 C65.16 101.01 63.23 101.91 61.3 102.82 C59.68 103.57 59.68 103.57 58.03 104.33 C54.82 106.31 53.88 107.88 52.11 111.13 C50.46 112.43 50.46 112.43 48.73 113.32 C48.12 113.64 47.51 113.96 46.89 114.29 C44.67 115.34 42.39 116.22 40.11 117.13 C39.45 117.79 38.79 118.45 38.11 119.13 C34.98 119.26 34.98 119.26 32.11 119.13 C29.9 112.68 27.88 106.18 25.98 99.63 C25.72 98.75 25.46 97.86 25.18 96.95 C23.74 91.97 22.78 87.23 22.32 82.08 C22.06 79.67 21.48 77.49 20.73 75.2 C20.47 74.36 20.21 73.52 19.94 72.66 C19.39 71 18.84 69.35 18.28 67.7 C16.4 61.93 15.67 56.57 15.42 50.5 C15.27 49.33 15.27 49.33 15.11 48.13 C14.45 47.8 13.79 47.47 13.11 47.13 C13.44 45.15 13.77 43.17 14.11 41.13 C12.79 41.13 11.47 41.13 10.11 41.13 C10.07 41.89 10.03 42.66 10 43.44 C9.63 49.17 9 54.2 7.01 59.57 C5.81 62.98 4.86 66.45 3.92 69.95 C3.41 71.84 3.41 71.84 2.88 73.78 C1.96 77.21 1.96 77.21 2.11 81.13 C1.45 81.13 0.79 81.13 0.11 81.13 C-0.02 82.42 -0.16 83.71 -0.29 85.04 C-0.84 89.96 -1.61 94.82 -2.45 99.7 C-2.66 100.92 -2.66 100.92 -2.87 102.17 C-3.21 104.16 -3.55 106.15 -3.89 108.13 C-4.55 108.13 -5.21 108.13 -5.89 108.13 C-5.89 109.45 -5.89 110.77 -5.89 112.13 C-6.55 112.13 -7.21 112.13 -7.89 112.13 C-7.89 114.44 -7.89 116.75 -7.89 119.13 C-9.15 119.01 -10.41 118.89 -11.7 118.76 C-12.41 118.69 -13.12 118.62 -13.85 118.55 C-15.89 118.13 -15.89 118.13 -18.89 116.13 C-18.89 115.14 -18.89 114.15 -18.89 113.13 C-19.86 113.11 -20.83 113.09 -21.83 113.07 C-27.16 112.33 -31.15 108.81 -34.89 105.13 C-36.15 102.9 -36.15 102.9 -36.89 101.13 C-37.88 101.13 -38.87 101.13 -39.89 101.13 C-39.89 102.78 -39.89 104.43 -39.89 106.13 C-38.93 106.32 -38.93 106.32 -37.95 106.51 C-37.27 106.71 -36.59 106.92 -35.89 107.13 C-34.41 110.09 -34.83 112.88 -34.89 116.13 C-33.57 116.13 -32.25 116.13 -30.89 116.13 C-30.89 117.78 -30.89 119.43 -30.89 121.13 C-29.9 121.13 -28.91 121.13 -27.89 121.13 C-27.21 122.33 -26.55 123.54 -25.89 124.76 C-25.52 125.43 -25.15 126.1 -24.77 126.8 C-23.69 129.67 -23.83 132.09 -23.89 135.13 C-52.62 143.65 -52.62 143.65 -64.89 145.56 C-67.88 146.03 -67.88 146.03 -70.47 147.2 C-73.22 148.26 -75.27 148.34 -78.2 148.26 C-79.09 148.24 -79.97 148.22 -80.88 148.2 C-81.54 148.18 -82.21 148.16 -82.89 148.13 C-83.22 149.45 -83.55 150.77 -83.89 152.13 C-85.94 152.36 -87.99 152.59 -90.04 152.82 C-91.9 152.95 -91.9 152.95 -92.89 154.13 C-94.89 154.17 -96.89 154.18 -98.89 154.13 C-98.89 154.79 -98.89 155.45 -98.89 156.13 C-96.58 156.13 -94.27 156.13 -91.89 156.13 C-91.89 156.79 -91.89 157.45 -91.89 158.13 C-90.19 158.1 -90.19 158.1 -88.45 158.07 C-84.89 158.13 -84.89 158.13 -83.89 159.13 C-80.63 159.67 -77.36 160.1 -74.09 160.54 C-71.27 161.06 -69.33 161.69 -66.89 163.13 C-66.89 163.79 -66.89 164.45 -66.89 165.13 C-66.13 165.1 -65.37 165.06 -64.58 165.03 C-57.72 164.85 -52.23 165.45 -45.89 168.13 C-45.89 169.12 -45.89 170.11 -45.89 171.13 C-44.65 171.07 -43.42 171.01 -42.14 170.95 C-36.19 170.94 -30.51 172.22 -24.89 174.13 C-24.23 174.79 -23.57 175.45 -22.89 176.13 C-23.13 180.59 -25.13 182.78 -27.89 186.13 C-29.13 188.81 -29.13 188.81 -29.89 191.13 C-30.88 191.13 -31.87 191.13 -32.89 191.13 C-32.99 191.88 -33.08 192.62 -33.18 193.39 C-33.99 196.52 -35.04 197.77 -37.27 200.07 C-40.24 203.29 -42.18 206.12 -43.89 210.13 C-39.28 209.39 -36.64 206.6 -33.21 203.63 C-30.52 201.89 -29.03 201.83 -25.89 202.13 C-25.89 201.14 -25.89 200.15 -25.89 199.13 C-24.1 198.13 -22.31 197.13 -20.52 196.13 C-19.52 195.58 -18.52 195.02 -17.49 194.45 C-14.89 193.13 -14.89 193.13 -12.89 193.13 C-12.89 192.47 -12.89 191.81 -12.89 191.13 C-11.9 191.13 -10.91 191.13 -9.89 191.13 C-9.07 193.67 -8.26 196.21 -7.45 198.76 C-7.11 199.83 -7.11 199.83 -6.76 200.92 C-4.83 206.99 -3.75 212.61 -3.83 219.01 C-3.84 219.97 -3.85 220.94 -3.86 221.94 C-3.87 223.02 -3.87 223.02 -3.89 224.13 C-2.57 224.13 -1.25 224.13 0.11 224.13 C1.18 227.33 1.24 229.62 1.24 232.98 C1.24 234.19 1.25 235.4 1.25 236.64 C1.24 237.96 1.24 239.28 1.23 240.63 C1.23 241.31 1.23 241.98 1.23 242.68 C1.21 253.98 0.99 265.27 0.67 276.57 C0.65 277.28 0.63 278 0.61 278.73 C0.39 286.53 0.09 294.32 -0.36 302.11 C-0.4 302.8 -0.44 303.49 -0.48 304.2 C-0.77 309.01 -0.77 309.01 -1.89 310.13 C-9.02 310.62 -15.48 309.15 -22.39 307.51 C-23.55 307.23 -24.7 306.96 -25.89 306.68 C-48.07 301.29 -76.83 290.27 -91.89 272.13 C-91.89 271.14 -91.89 270.15 -91.89 269.13 C-92.88 269.13 -93.87 269.13 -94.89 269.13 C-94.89 268.14 -94.89 267.15 -94.89 266.13 C-95.61 266.1 -96.32 266.07 -97.06 266.04 C-101.08 264.75 -102.81 261.98 -105.2 258.7 C-106.17 257.41 -107.14 256.13 -108.11 254.84 C-108.58 254.21 -109.05 253.58 -109.54 252.92 C-111.36 250.5 -113.28 248.16 -115.2 245.82 C-120.32 239.41 -124.75 233.06 -127.91 225.46 C-128.55 223.93 -129.25 222.42 -130 220.93 C-136.52 207.81 -142.72 191 -141.89 176.13 C-141.4 175.14 -141.4 175.14 -140.89 174.13 C-141.55 174.13 -142.21 174.13 -142.89 174.13 C-143.54 132.08 -143.54 132.08 -139.89 118.13 C-139.57 116.88 -139.57 116.88 -139.24 115.61 C-135.22 100.63 -128.92 86.92 -121.89 73.13 C-120.9 73.13 -119.91 73.13 -118.89 73.13 C-118.77 72.37 -118.64 71.61 -118.52 70.82 C-117.89 68.13 -117.89 68.13 -115.89 65.13 C-114.9 65.13 -113.91 65.13 -112.89 65.13 C-112.63 64.43 -112.37 63.72 -112.1 63 C-110.8 59.92 -109.26 57.17 -107.52 54.32 C-106.93 53.34 -106.35 52.37 -105.74 51.36 C-105.13 50.63 -104.52 49.89 -103.89 49.13 C-102.57 49.13 -101.25 49.13 -99.89 49.13 C-99.61 48.11 -99.61 48.11 -99.33 47.07 C-95.74 39.73 -87.64 33.49 -80.89 29.13 C-79.57 29.13 -78.25 29.13 -76.89 29.13 C-76.81 28.51 -76.73 27.9 -76.64 27.26 C-75.89 25.13 -75.89 25.13 -74.08 23.88 C-71.89 23.13 -71.89 23.13 -67.89 23.13 C-67.83 22.53 -67.77 21.93 -67.71 21.31 C-66.52 18.14 -64.77 17.68 -61.74 16.26 C-60.66 15.75 -59.58 15.24 -58.47 14.72 C-57.31 14.19 -56.15 13.67 -54.95 13.13 C-53.19 12.33 -53.19 12.33 -51.4 11.51 C-40.85 6.85 -29.61 2.68 -17.89 3.13 C-17.89 2.47 -17.89 1.81 -17.89 1.13 C-11.95 -0.16 -6.05 -0.01 0 0 Z " fill="#1677FF" transform="translate(300.890625,153.8671875)"/>
<path d="M0 0 C1.62 0.01 1.62 0.01 3.27 0.03 C4.09 0.04 4.91 0.05 5.75 0.06 C5.75 1.71 5.75 3.36 5.75 5.06 C8.06 5.06 10.37 5.06 12.75 5.06 C12.75 6.38 12.75 7.7 12.75 9.06 C14.11 9.22 14.11 9.22 15.5 9.38 C18.78 10.07 20.36 10.76 22.75 13.06 C22.75 13.72 22.75 14.38 22.75 15.06 C24.4 15.06 26.05 15.06 27.75 15.06 C27.75 16.38 27.75 17.7 27.75 19.06 C29.73 19.06 31.71 19.06 33.75 19.06 C34.08 20.71 34.41 22.36 34.75 24.06 C36.73 24.06 38.71 24.06 40.75 24.06 C41.08 26.04 41.41 28.02 41.75 30.06 C42.41 30.06 43.07 30.06 43.75 30.06 C43.75 29.4 43.75 28.74 43.75 28.06 C45.4 28.39 47.05 28.72 48.75 29.06 C49.08 30.38 49.41 31.7 49.75 33.06 C51.4 33.06 53.05 33.06 54.75 33.06 C54.75 34.38 54.75 35.7 54.75 37.06 C55.41 37.06 56.07 37.06 56.75 37.06 C56.75 36.4 56.75 35.74 56.75 35.06 C58.4 35.39 60.05 35.72 61.75 36.06 C62.08 38.04 62.41 40.02 62.75 42.06 C63.93 42 63.93 42 65.12 41.94 C67.75 42.06 67.75 42.06 69.75 44.06 C69.75 45.05 69.75 46.04 69.75 47.06 C71.4 46.73 73.05 46.4 74.75 46.06 C76.21 48.71 76.75 49.96 76.75 53.06 C77.41 53.06 78.07 53.06 78.75 53.06 C78.75 52.4 78.75 51.74 78.75 51.06 C80.4 51.39 82.05 51.72 83.75 52.06 C83.75 53.38 83.75 54.7 83.75 56.06 C85.4 55.73 87.05 55.4 88.75 55.06 C89.41 56.05 90.07 57.04 90.75 58.06 C93.31 58.79 93.31 58.79 95.75 59.06 C96.08 60.71 96.41 62.36 96.75 64.06 C98.73 64.06 100.71 64.06 102.75 64.06 C102.75 65.38 102.75 66.7 102.75 68.06 C103.7 68 104.65 67.94 105.62 67.88 C106.66 67.94 107.69 68 108.75 68.06 C109.41 69.05 110.07 70.04 110.75 71.06 C111.96 71.53 111.96 71.53 113.19 72 C116.16 73.23 116.88 74.54 118.75 77.06 C120.84 77.86 120.84 77.86 122.75 78.06 C122.75 79.71 122.75 81.36 122.75 83.06 C123.74 83.06 124.73 83.06 125.75 83.06 C126.08 82.07 126.41 81.08 126.75 80.06 C126.75 80.72 126.75 81.38 126.75 82.06 C127.41 82.06 128.07 82.06 128.75 82.06 C128.75 83.38 128.75 84.7 128.75 86.06 C131.06 86.06 133.37 86.06 135.75 86.06 C136.08 87.38 136.41 88.7 136.75 90.06 C139.06 90.39 141.37 90.72 143.75 91.06 C143.75 92.38 143.75 93.7 143.75 95.06 C145.73 95.06 147.71 95.06 149.75 95.06 C149.75 96.38 149.75 97.7 149.75 99.06 C151.4 99.06 153.05 99.06 154.75 99.06 C154.75 99.72 154.75 100.38 154.75 101.06 C155.74 101.06 156.73 101.06 157.75 101.06 C157.75 102.71 157.75 104.36 157.75 106.06 C158.41 106.06 159.07 106.06 159.75 106.06 C159.75 104.74 159.75 103.42 159.75 102.06 C161.07 102.72 162.39 103.38 163.75 104.06 C163.75 105.71 163.75 107.36 163.75 109.06 C166.06 109.06 168.37 109.06 170.75 109.06 C171.08 110.38 171.41 111.7 171.75 113.06 C173.4 112.73 175.05 112.4 176.75 112.06 C177.08 113.71 177.41 115.36 177.75 117.06 C179.73 117.06 181.71 117.06 183.75 117.06 C184.08 119.04 184.41 121.02 184.75 123.06 C187.06 123.06 189.37 123.06 191.75 123.06 C191.75 124.71 191.75 126.36 191.75 128.06 C192.68 127.86 193.61 127.65 194.56 127.44 C197.75 127.06 197.75 127.06 200.75 129.06 C201.66 131.79 201.88 133.36 201.88 136.16 C201.88 137.41 201.88 137.41 201.88 138.7 C201.88 140.07 201.88 140.07 201.88 141.48 C201.88 142.46 201.88 143.44 201.88 144.44 C201.89 147.74 201.88 151.03 201.88 154.32 C201.88 156.67 201.88 159.02 201.88 161.38 C201.89 167.79 201.89 174.2 201.88 180.61 C201.88 184.62 201.88 188.63 201.88 192.64 C201.88 193.3 201.88 193.97 201.88 194.65 C201.88 196.01 201.88 197.36 201.89 198.71 C201.89 211.41 201.88 224.11 201.88 236.81 C201.88 247.67 201.88 258.54 201.88 269.4 C201.89 282.03 201.89 294.66 201.88 307.29 C201.88 308.64 201.88 310 201.88 311.35 C201.88 312.01 201.88 312.68 201.88 313.36 C201.88 318.02 201.88 322.67 201.89 327.33 C201.89 333.63 201.89 339.92 201.88 346.22 C201.88 348.52 201.88 350.82 201.88 353.11 C201.89 366.47 201.61 379.74 200.75 393.06 C196.52 394.09 192.42 394.2 188.09 394.18 C187.32 394.18 186.56 394.18 185.77 394.19 C183.22 394.19 180.66 394.18 178.11 394.18 C176.27 394.18 174.44 394.18 172.61 394.18 C167.63 394.18 162.66 394.17 157.68 394.16 C152.48 394.16 147.28 394.16 142.09 394.16 C132.24 394.15 122.39 394.14 112.55 394.13 C101.34 394.12 90.13 394.12 78.92 394.11 C55.86 394.1 32.81 394.08 9.75 394.06 C9.75 392.08 9.75 390.1 9.75 388.06 C14.71 386.5 19.6 385.53 24.73 384.72 C48.97 380.87 67.92 371.76 88.75 359.06 C89.47 358.63 90.18 358.2 90.92 357.76 C91.63 357.32 92.33 356.89 93.06 356.45 C93.7 356.06 94.33 355.68 94.99 355.28 C96.82 354.12 96.82 354.12 98.23 352.41 C99.75 351.06 99.75 351.06 103.75 351.06 C103.94 350.36 104.12 349.66 104.31 348.94 C105.71 346.14 106.46 345.31 108.81 343.44 C113.1 339.99 116.33 335.85 119.73 331.55 C122.88 327.67 122.88 327.67 124.75 326.06 C125.41 326.06 126.07 326.06 126.75 326.06 C126.98 325.2 127.2 324.33 127.44 323.44 C128.57 320.52 129.34 319.15 131.31 316.88 C133.9 314.25 133.9 314.25 134.75 311.06 C135.74 311.06 136.73 311.06 137.75 311.06 C137.87 310.33 138 309.59 138.12 308.83 C138.73 306.16 139.54 304.17 140.79 301.75 C141.41 300.53 141.41 300.53 142.04 299.27 C142.48 298.4 142.92 297.53 143.38 296.62 C153.92 275.04 159.04 252.97 159.75 229.06 C159.79 227.9 159.83 226.74 159.88 225.55 C160.19 208.78 157.53 193.08 152.75 177.06 C152.39 175.8 152.03 174.54 151.66 173.24 C147.67 160.15 141.55 147.31 133.75 136.06 C133.3 135.26 132.84 134.45 132.38 133.62 C130.61 130.85 128.61 128.51 126.45 126.04 C124.54 123.81 122.7 121.55 120.88 119.25 C120.28 118.5 119.68 117.75 119.07 116.98 C117.75 115.06 117.75 115.06 117.75 113.06 C117.15 112.79 116.55 112.53 115.94 112.25 C113.73 111.05 112.31 110.02 110.75 108.06 C110.75 107.07 110.75 106.08 110.75 105.06 C109.66 104.67 109.66 104.67 108.54 104.27 C105.68 103.03 103.52 101.6 101.06 99.69 C100.3 99.1 99.53 98.52 98.74 97.91 C96.75 96.06 96.75 96.06 95.86 93.96 C94.18 91.09 91.87 91 88.75 90.06 C86.74 88.89 84.76 87.65 82.81 86.38 C75.75 81.9 68.43 78.32 60.75 75.06 C60.06 74.76 59.38 74.47 58.67 74.16 C39.64 66.05 18.43 62.06 -2.25 62.06 C-3.46 62.06 -4.67 62.06 -5.92 62.06 C-37.04 63.1 -67.83 72.29 -93.44 89.83 C-95.08 90.95 -96.75 92.01 -98.42 93.07 C-102.44 95.9 -105.55 99.42 -108.88 103.02 C-111.25 105.06 -111.25 105.06 -115.25 105.06 C-115.31 105.62 -115.37 106.18 -115.44 106.75 C-116.35 109.34 -117.63 110.6 -119.6 112.46 C-125.28 117.97 -130.44 123.87 -134.67 130.56 C-135.84 132.41 -137.06 134.23 -138.3 136.04 C-161.25 169.58 -169.17 212.71 -162.35 252.56 C-159.2 269.08 -154.43 284.38 -146.25 299.06 C-145.49 300.45 -144.75 301.85 -144.01 303.25 C-143.51 304.2 -143.51 304.2 -142.99 305.17 C-142.25 307.06 -142.25 307.06 -142.25 311.06 C-141.26 311.06 -140.27 311.06 -139.25 311.06 C-137.57 313.26 -137.57 313.26 -135.81 316.19 C-134.88 317.71 -134.88 317.71 -133.93 319.25 C-132.76 321.21 -131.6 323.17 -130.44 325.12 C-127.53 329.02 -124.12 332.27 -120.65 335.66 C-118.78 337.53 -117.08 339.38 -115.44 341.44 C-113.32 344.17 -113.32 344.17 -110.44 346.25 C-109.72 346.85 -108.99 347.45 -108.25 348.06 C-108.25 349.05 -108.25 350.04 -108.25 351.06 C-107.53 351.15 -106.81 351.24 -106.07 351.34 C-102.73 352.2 -100.9 353.57 -98.19 355.69 C-74.03 373.74 -45.37 381.28 -16.25 387.06 C-16.25 389.7 -16.25 392.34 -16.25 395.06 C-16.58 394.4 -16.91 393.74 -17.25 393.06 C-17.92 393.22 -18.59 393.39 -19.28 393.55 C-22.8 394.16 -26.23 394.2 -29.79 394.19 C-30.54 394.19 -31.29 394.19 -32.07 394.19 C-34.58 394.2 -37.09 394.2 -39.6 394.19 C-41.4 394.19 -43.2 394.2 -45.01 394.2 C-49.9 394.2 -54.79 394.2 -59.68 394.2 C-64.79 394.19 -69.9 394.2 -75.01 394.2 C-83.6 394.2 -92.18 394.2 -100.76 394.19 C-110.69 394.19 -120.63 394.19 -130.56 394.19 C-139.08 394.2 -147.6 394.2 -156.13 394.2 C-161.22 394.2 -166.31 394.2 -171.41 394.2 C-176.19 394.2 -180.97 394.2 -185.76 394.19 C-187.52 394.19 -189.28 394.19 -191.04 394.2 C-193.43 394.2 -195.82 394.19 -198.22 394.19 C-199.27 394.19 -199.27 394.19 -200.35 394.2 C-205.14 394.18 -205.14 394.18 -206.25 393.06 C-206.35 391.67 -206.38 390.27 -206.38 388.87 C-206.38 387.97 -206.39 387.06 -206.39 386.12 C-206.39 385.11 -206.39 384.1 -206.38 383.06 C-206.39 382 -206.39 380.93 -206.39 379.84 C-206.4 376.24 -206.4 372.65 -206.4 369.05 C-206.4 366.49 -206.4 363.92 -206.41 361.36 C-206.41 355.1 -206.42 348.83 -206.42 342.57 C-206.42 337.48 -206.42 332.39 -206.42 327.3 C-206.43 312.89 -206.44 298.47 -206.44 284.05 C-206.44 283.28 -206.44 282.5 -206.44 281.7 C-206.44 280.92 -206.44 280.14 -206.44 279.34 C-206.43 266.71 -206.44 254.09 -206.46 241.47 C-206.47 228.52 -206.48 215.57 -206.48 202.62 C-206.48 195.34 -206.48 188.07 -206.49 180.79 C-206.5 173.95 -206.5 167.11 -206.49 160.27 C-206.49 157.75 -206.5 155.24 -206.5 152.72 C-206.51 149.3 -206.5 145.87 -206.5 142.45 C-206.5 141.44 -206.51 140.44 -206.51 139.41 C-206.51 138.49 -206.5 137.57 -206.5 136.63 C-206.5 135.84 -206.5 135.05 -206.5 134.23 C-206.21 131.72 -205.68 130.15 -204.25 128.06 C-200.62 127.31 -200.62 127.31 -197.25 127.06 C-197.25 126.07 -197.25 125.08 -197.25 124.06 C-196.26 124.06 -195.27 124.06 -194.25 124.06 C-194.25 123.4 -194.25 122.74 -194.25 122.06 C-192.93 122.06 -191.61 122.06 -190.25 122.06 C-190.04 121.11 -189.84 120.17 -189.62 119.19 C-188.25 116.06 -188.25 116.06 -185.5 114.69 C-182.32 114.08 -179.48 113.91 -176.25 114.06 C-175.92 112.41 -175.59 110.76 -175.25 109.06 C-173.55 108.66 -173.55 108.66 -171.81 108.25 C-170.64 107.86 -169.46 107.47 -168.25 107.06 C-167.75 105.58 -167.75 105.58 -167.25 104.06 C-166.26 104.06 -165.27 104.06 -164.25 104.06 C-164.25 104.72 -164.25 105.38 -164.25 106.06 C-163.59 106.06 -162.93 106.06 -162.25 106.06 C-162.11 104.93 -161.96 103.79 -161.81 102.62 C-161.25 99.06 -161.25 99.06 -160.25 98.06 C-158.58 98.02 -156.92 98.02 -155.25 98.06 C-155.25 97.4 -155.25 96.74 -155.25 96.06 C-153.27 96.06 -151.29 96.06 -149.25 96.06 C-149.11 95.26 -148.96 94.45 -148.81 93.62 C-148.25 91.06 -148.25 91.06 -147.25 90.06 C-145.25 90.02 -143.25 90.02 -141.25 90.06 C-141.25 89.07 -141.25 88.08 -141.25 87.06 C-138.61 86.73 -135.97 86.4 -133.25 86.06 C-133.25 84.74 -133.25 83.42 -133.25 82.06 C-131.6 82.06 -129.95 82.06 -128.25 82.06 C-128.16 80.89 -128.16 80.89 -128.06 79.69 C-127.66 78.39 -127.66 78.39 -127.25 77.06 C-125 76 -125 76 -122.25 75.06 C-120.56 73.76 -118.9 72.42 -117.25 71.06 C-113 67.98 -113 67.98 -109.44 68.38 C-108.72 68.6 -107.99 68.83 -107.25 69.06 C-107.25 67.41 -107.25 65.76 -107.25 64.06 C-105.27 64.06 -103.29 64.06 -101.25 64.06 C-100.92 62.41 -100.59 60.76 -100.25 59.06 C-99.28 58.75 -98.31 58.44 -97.31 58.12 C-94.41 57.37 -94.41 57.37 -93.25 56.06 C-91.58 56.02 -89.92 56.02 -88.25 56.06 C-87.92 54.41 -87.59 52.76 -87.25 51.06 C-86.49 51.17 -85.72 51.27 -84.94 51.38 C-83.61 51.22 -83.61 51.22 -82.25 51.06 C-81.75 50.24 -81.26 49.41 -80.75 48.56 C-80.25 47.74 -79.76 46.91 -79.25 46.06 C-76.56 45.75 -76.56 45.75 -74.25 46.06 C-73.92 44.74 -73.59 43.42 -73.25 42.06 C-71.27 42.06 -69.29 42.06 -67.25 42.06 C-66.59 40.41 -65.93 38.76 -65.25 37.06 C-63.93 37.06 -62.61 37.06 -61.25 37.06 C-60.94 36.26 -60.63 35.45 -60.31 34.62 C-59.25 32.06 -59.25 32.06 -58.25 31.06 C-56.58 31.02 -54.92 31.02 -53.25 31.06 C-53.25 30.4 -53.25 29.74 -53.25 29.06 C-52.12 28.79 -50.98 28.53 -49.81 28.25 C-48.05 27.66 -48.05 27.66 -46.25 27.06 C-45.92 26.07 -45.59 25.08 -45.25 24.06 C-43.27 24.06 -41.29 24.06 -39.25 24.06 C-38.92 22.41 -38.59 20.76 -38.25 19.06 C-35.94 18.73 -33.63 18.4 -31.25 18.06 C-31.25 17.07 -31.25 16.08 -31.25 15.06 C-29.6 15.06 -27.95 15.06 -26.25 15.06 C-25.94 14.26 -25.63 13.45 -25.31 12.62 C-24.25 10.06 -24.25 10.06 -23.25 9.06 C-21.25 9.02 -19.25 9.02 -17.25 9.06 C-17.25 8.07 -17.25 7.08 -17.25 6.06 C-13.78 5.57 -13.78 5.57 -10.25 5.06 C-10.25 3.74 -10.25 2.42 -10.25 1.06 C-6.79 -0 -3.61 -0.04 0 0 Z " fill="#1677FF" transform="translate(315.25,84.9375)"/>
</svg>
